<svg xmlns="http://www.w3.org/2000/svg" viewBox="0 0 170.079 17.346" enable-background="new 0 0 170.079 17.346">
    <path fill="#fff" d="M4.91.372l6.671 12.646 6.823-12.646h4.911l-7.322 13.58c-.456.804-.652 1.152-.934 1.499-.913 1.13-1.716 1.63-2.803 1.825-2.086.348-3.607-.565-5.389-3.933l-6.867-12.971h4.91zM23.496 5.326c0-1.456.652-2.673 2.303-3.889.934-.717 1.803-1 3.237-1.065h12.885c1.217 0 2.151.326 3.085 1.043.217.152.413.348.608.587 1.195 1.304 1.586 2.282 1.586 3.694v6.193c0 1.412-.435 2.39-1.564 3.563-1.13 1.108-2.195 1.564-3.781 1.564h-12.992c-1.803 0-2.89-.478-4.041-1.782-.934-1.021-1.325-2.086-1.325-3.607v-6.301zm19.382-.782h-15.058v8.322h15.058v-8.322zM53.076.372l4.78 5.562.63.739.087.13c.239.304.435.63.652.934.239-.391.435-.695.652-.934l.087-.152.63-.717 4.78-5.562h5.693l-7.583 8.257 7.257 8.387h-5.628l-4.411-5.28c-.891-1.043-1.152-1.434-1.478-2.26-.348.826-.587 1.173-1.499 2.26l-4.411 5.28h-5.606l7.235-8.387-7.561-8.257h5.694zM72.302.372h4.324v6.062h15.448v-6.062h4.324v16.644h-4.324v-6.431h-15.448v6.431h-4.324v-16.644zM104.607 4.392l.673-1.347c.109-.152.195-.304.283-.456 1.064-1.63 2.042-2.303 3.15-2.521 1.738-.304 3.02.391 4.346 2.521l.348.565.695 1.325 6.931 12.537h-4.889l-2.455-4.563h-8.713l-2.434 4.563h-4.933l6.998-12.624zm4.737.217l-2.021 3.607h3.998l-1.977-3.607zM121.324.372h4.324v12.494h19.251v4.15h-18.339c-.804 0-1.63-.217-2.434-.652-1.847-1.021-2.803-2.607-2.803-4.389v-11.603zM146.504.372h4.324v12.494h19.251v4.15h-18.339c-.804 0-1.63-.217-2.434-.652-1.847-1.021-2.803-2.607-2.803-4.389v-11.603z" />
</svg>