<svg xmlns="http://www.w3.org/2000/svg" xmlns:xlink="http://www.w3.org/1999/xlink" version="1.1" id="Layer_1" x="0px" y="0px" viewBox="0 0 161.3 35.2" style="enable-background:new 0 0 161.3 35.2;" xml:space="preserve">
    <style type="text/css">
	.st0{fill:#1D1D1B;}
</style>
    <polygon class="st0" points="11.7,15.8 20,1 26.9,1 12.6,25.4 7.7,25.4 1.2,1 8.1,1 11.7,15.8 " />
    <path class="st0" d="M32,12.8c-0.7,4.2,2,7.3,5.7,7.3c4.1-0.2,7.5-3.2,8.1-7.3c0.4-3.1-1.8-6-4.9-6.4c-0.3,0-0.7-0.1-1,0  C36.1,6.4,32.5,9.4,32,12.8L32,12.8z M52.4,12.8c-1.1,7.7-7.8,13.5-15.6,13.4c-7.9,0-12.6-5.6-11.4-13.5c1.2-7.4,8.5-12.6,15.5-12.6  S53.6,5.4,52.4,12.8L52.4,12.8z" />
    <polygon class="st0" points="55.6,1 63.4,1 66.2,7.3 70.9,1 78.7,1 69.1,12.4 76.1,25.4 68.4,25.4 64.6,17.5 57.7,25.4 50,25.4   61.7,12.4 55.6,1 " />
    <polygon class="st0" points="95.8,10.4 97.3,1 103.6,1 99.8,25.4 93.4,25.4 95,15.4 85.9,15.4 84.3,25.4 77.9,25.4 81.8,1 88.1,1   86.6,10.4 95.8,10.4 " />
    <path class="st0" d="M117.3,8.6L117.3,8.6l-3.9,7.8h5.3L117.3,8.6L117.3,8.6z M110.8,21.2l-2.4,4.3h-6.7L115,1h6.9l5.4,24.4h-6.8  l-0.9-4.2H110.8z" />
    <polygon class="st0" points="136.4,20.1 144,20.1 143.2,25.4 129.2,25.4 133.1,1 139.4,1 136.4,20.1 " />
    <polygon class="st0" points="152.5,20.1 160.1,20.1 159.2,25.4 145.3,25.4 149.1,1 155.5,1 152.5,20.1 " />
    <path class="st0" d="M39.4,29.1v4.2h1.7v0.8h-2.7v-5.1H39.4z" />
    <path class="st0" d="M43.1,29.1h1v5.1h-1V29.1z" />
    <path class="st0" d="M50,29.1h1.1l-1.9,5.1H48l-1.9-5.1h1.1l1.4,4L50,29.1z" />
    <path class="st0" d="M56,29.9h-1.9v1.3h1.7V32h-1.7v1.3H56v0.8h-2.9v-5.1H56V29.9z" />
    <path class="st0" d="M61.4,29.1h1.2l1.6,3.8l1.6-3.8H67v5.1h-1v-3.3l-1.3,3.3h-0.8l-1.4-3.3v3.3h-1L61.4,29.1z" />
    <path class="st0" d="M69.3,29.1h1v3.1c0,0.6,0.5,1,1,1s1-0.5,1-1v-3.1h1v3.1c0.1,1.1-0.8,2-1.8,2c-0.1,0-0.2,0-0.3,0  c-1,0.1-1.9-0.7-2-1.7c0-0.1,0-0.2,0-0.3L69.3,29.1z" />
    <path class="st0" d="M77.5,34.2c-1.1,0-1.9-0.6-1.9-1.5h1.1c0,0.4,0.3,0.7,0.7,0.7c0,0,0,0,0,0c0.5,0,0.8-0.2,0.8-0.6  c0-1.1-2.6-0.4-2.6-2.3c0-0.9,0.7-1.5,1.8-1.5s1.8,0.5,1.8,1.4h-1.1c0-0.4-0.4-0.6-0.7-0.6c-0.4,0-0.7,0.2-0.7,0.6  c0,1,2.6,0.5,2.6,2.2c0,0.9-0.8,1.6-1.7,1.5C77.6,34.2,77.6,34.2,77.5,34.2z" />
    <path class="st0" d="M81.6,29.1h1v5.1h-1V29.1z" />
    <path class="st0" d="M87.3,29.1c1.1-0.1,2,0.6,2.4,1.6h-1.2c-0.2-0.5-0.7-0.7-1.2-0.7c-0.9,0.1-1.6,0.9-1.5,1.8  c0.1,0.8,0.7,1.5,1.5,1.5c0.5,0,1-0.3,1.2-0.7h1.2c-0.3,1-1.3,1.7-2.4,1.6c-1.4-0.1-2.5-1.3-2.4-2.7C84.9,30.2,86,29.1,87.3,29.1z" />
    <path class="st0" d="M98.5,29.1h1.1l-1.8,5.1h-1.2l-1.9-5.1h1.1l1.4,4L98.5,29.1z" />
    <path class="st0" d="M104.5,29.9h-1.9v1.3h1.7V32h-1.7v1.3h1.9v0.8h-2.9v-5.1h2.9V29.9z" />
    <path class="st0" d="M111.1,29.1v5.1h-1l-2.3-3.5v3.5h-1v-5.1h1l2.3,3.5v-3.5H111.1z" />
    <path class="st0" d="M113.5,29.1h1v3.1c0,0.6,0.5,1,1,1s1-0.5,1-1v-3.1h1v3.1c0.1,1.1-0.8,2-1.8,2c-0.1,0-0.2,0-0.3,0  c-1,0.1-1.9-0.7-2-1.7c0-0.1,0-0.2,0-0.3L113.5,29.1z" />
    <path class="st0" d="M122.9,29.9H121v1.3h1.7V32H121v1.3h1.9v0.8H120v-5.1h2.9L122.9,29.9z" />
</svg>